# xmcd
#
# Track frame offsets:
#	150
#	24531
#	40160
#	60482
#	73289
#	90861
#	109718
#	131739
#	156390
#	174134
#	184293
#	200725
#	224137
#	241016
#	261380
#	281486
#	302167
#
# Disc length: 4193 seconds
#
# Revision: 1
# Processed by: cddbd v1.4PL0 Copyright (c) Steve Scherf et al.
# Submitted via: EasyCDDAExtractor 5.0.6
#
DISCID=fb105f11
DTITLE=Limp Bizikit - 111
DYEAR=1999
DGENRE=Acid Jazz
TTITLE0=take a look around
TTITLE1=crushed
TTITLE2=show me what you got
TTITLE3=break stuff
TTITLE4=hot dog
TTITLE5=full nelson
TTITLE6=nookie
TTITLE7=stuck
TTITLE8=pollution
TTITLE9=leech
TTITLE10=just like this
TTITLE11=counterfelt
TTITLE12=my generation
TTITLE13=nobody loves me
TTITLE14=livin' up
TTITLE15=cambodia
TTITLE16=jump around
EXTD=
EXTT0=
EXTT1=
EXTT2=
EXTT3=
EXTT4=
EXTT5=
EXTT6=
EXTT7=
EXTT8=
EXTT9=
EXTT10=
EXTT11=
EXTT12=
EXTT13=
EXTT14=
EXTT15=
EXTT16=
PLAYORDER=
